<svg xmlns="http://www.w3.org/2000/svg" width="34" height="34" viewBox="0 0 34 34" fill="none">
<path d="M7.7916 21.25C9.03069 21.2463 10.2229 20.7759 11.1307 19.9325L19.999 24.9999C19.7019 26.161 19.8329 27.3903 20.368 28.4627C20.9031 29.5352 21.8066 30.379 22.913 30.8397C24.0195 31.3004 25.2548 31.3473 26.393 30.9716C27.5311 30.596 28.4959 29.823 29.1106 28.7941C29.7254 27.7653 29.9491 26.5495 29.7407 25.3692C29.5323 24.1889 28.9058 23.1232 27.9759 22.3671C27.046 21.611 25.8748 21.2151 24.6769 21.2519C23.4789 21.2887 22.3343 21.7557 21.4525 22.5675L12.5842 17.5001C12.6777 17.1459 12.7287 16.779 12.7372 16.4121L21.4497 11.4325C22.2886 12.1958 23.3645 12.6473 24.4969 12.7114C25.6292 12.7754 26.7492 12.4481 27.6688 11.7843C28.5884 11.1205 29.2518 10.1606 29.5476 9.06571C29.8435 7.9708 29.7537 6.80745 29.2935 5.77085C28.8333 4.73424 28.0306 3.88745 27.02 3.37252C26.0095 2.8576 24.8526 2.70587 23.7435 2.9428C22.6343 3.17973 21.6404 3.79089 20.9284 4.67377C20.2165 5.55664 19.8298 6.65751 19.8333 7.79168C19.8389 8.19968 19.8942 8.60626 19.999 9.00009L11.9467 13.6C11.4797 12.8776 10.8328 12.2891 10.0696 11.8923C9.3064 11.4956 8.45308 11.3042 7.59351 11.337C6.73394 11.3698 5.89769 11.6256 5.16692 12.0794C4.43615 12.5332 3.836 13.1692 3.42544 13.9251C3.01487 14.681 2.80802 15.5307 2.82521 16.3907C2.84239 17.2508 3.08302 18.0915 3.52345 18.8304C3.96389 19.5693 4.58897 20.1809 5.33728 20.6051C6.0856 21.0293 6.9314 21.2516 7.7916 21.25Z" fill="#EFEFEF"/>
</svg>